<svg width="20" height="21" viewBox="0 0 20 21" fill="none" xmlns="http://www.w3.org/2000/svg">
<g clip-path="url(#clip0_2_2087)">
<path d="M17.5333 6.5167H8.73333C8.28889 6.5167 7.86667 6.65003 7.46667 6.9167C7.37778 6.25003 7.1 5.70559 6.63333 5.28337C6.16667 4.86114 5.62222 4.65003 5 4.65003C4.51111 4.65003 4.06667 4.76114 3.66667 4.98337V3.98337C3.66667 3.80559 3.61111 3.66114 3.5 3.55003C3.38889 3.43892 3.24444 3.38337 3.06667 3.38337H0.6C0.422222 3.38337 0.277778 3.43892 0.166667 3.55003C0.0555556 3.66114 0 3.80559 0 3.98337V16.5167C0 16.6945 0.0555556 16.8389 0.166667 16.95C0.277778 17.0611 0.422222 17.1167 0.6 17.1167H3.06667C3.24444 17.1167 3.38889 17.0611 3.5 16.95C3.61111 16.8389 3.66667 16.6945 3.66667 16.5167V14.5834H16.3333V16.5167C16.3333 16.6945 16.3889 16.8389 16.5 16.95C16.6111 17.0611 16.7556 17.1167 16.9333 17.1167H19.4C19.5778 17.1167 19.7222 17.0611 19.8333 16.95C19.9444 16.8389 20 16.6945 20 16.5167V8.98337C20 8.3167 19.7556 7.73892 19.2667 7.25003C18.7778 6.76114 18.2 6.5167 17.5333 6.5167ZM5 5.78337C5.35556 5.78337 5.65556 5.9167 5.9 6.18336C6.14444 6.45003 6.26667 6.76114 6.26667 7.1167C6.26667 7.47225 6.14444 7.77225 5.9 8.0167C5.65556 8.26114 5.35556 8.38337 5 8.38337C4.64444 8.38337 4.33333 8.26114 4.06667 8.0167C3.8 7.77225 3.66667 7.47225 3.66667 7.1167C3.66667 6.76114 3.8 6.45003 4.06667 6.18336C4.33333 5.9167 4.64444 5.78337 5 5.78337ZM3.66667 9.18337C4.06667 9.45003 4.5 9.58337 4.96667 9.58337C5.43333 9.58337 5.86667 9.45003 6.26667 9.18337V10.9167H3.66667V9.18337ZM18.8 15.9167H17.4667V13.9834C17.4667 13.85 17.4111 13.7278 17.3 13.6167C17.1889 13.5056 17.0667 13.45 16.9333 13.45H3.06667C2.93333 13.45 2.81111 13.5056 2.7 13.6167C2.58889 13.7278 2.53333 13.85 2.53333 13.9834V15.9167H1.2V4.58337H2.53333V11.5167C2.53333 11.65 2.58889 11.7834 2.7 11.9167C2.81111 12.05 2.93333 12.1167 3.06667 12.1167H18.8V15.9167ZM18.8 10.9167H7.46667V8.98337C7.46667 8.62781 7.58889 8.32781 7.83333 8.08337C8.07778 7.83892 8.37778 7.7167 8.73333 7.7167H17.5333C17.8889 7.7167 18.1889 7.83892 18.4333 8.08337C18.6778 8.32781 18.8 8.62781 18.8 8.98337V10.9167Z" fill="#1A1A1A"/>
</g>
<defs>
<clipPath id="clip0_2_2087">
<rect width="20" height="20" fill="white" transform="matrix(1 0 0 -1 0 20.25)"/>
</clipPath>
</defs>
</svg>
