<svg width="21" height="21" viewBox="0 0 21 21" fill="none" xmlns="http://www.w3.org/2000/svg">
<g clip-path="url(#clip0_2_2091)">
<path d="M20.6401 10.3833C20.6401 9.89444 20.4735 9.48333 20.1401 9.15C19.8068 8.81666 19.3957 8.65 18.9068 8.65H3.77347V3.25C3.77347 2.80555 3.92903 2.42777 4.24014 2.11666C4.46236 1.89444 4.71791 1.76111 5.0068 1.71666C5.29569 1.67222 5.59569 1.69444 5.9068 1.78333C5.5068 2.40555 5.35125 3.09444 5.44014 3.85C5.52903 4.60555 5.84014 5.25 6.37347 5.78333L6.5068 5.98333C6.64014 6.07222 6.78458 6.11666 6.94014 6.11666C7.09569 6.11666 7.21792 6.07222 7.3068 5.98333L11.1068 2.18333C11.2401 2.05 11.3068 1.90555 11.3068 1.75C11.3068 1.59444 11.2401 1.45 11.1068 1.31666L10.9735 1.18333C10.3957 0.605553 9.69569 0.294441 8.87347 0.249996C8.05125 0.205553 7.32903 0.427774 6.7068 0.916664C6.17347 0.605553 5.59569 0.48333 4.97347 0.549997C4.35125 0.616663 3.81791 0.872219 3.37347 1.31666C2.84014 1.85 2.57347 2.49444 2.57347 3.25V8.65H2.37347C1.88458 8.65 1.47347 8.81666 1.14014 9.15C0.806803 9.48333 0.640137 9.89444 0.640137 10.3833C0.640137 10.7833 0.751248 11.1278 0.97347 11.4167C1.19569 11.7056 1.46236 11.9167 1.77347 12.05V13.3167C1.77347 14.3833 2.06236 15.3611 2.64014 16.25C3.21791 17.1389 3.95125 17.8278 4.84014 18.3167L4.3068 19.3833C4.21791 19.5611 4.2068 19.7167 4.27347 19.85C4.34014 19.9833 4.44014 20.0944 4.57347 20.1833C4.7068 20.2722 4.85125 20.2833 5.0068 20.2167C5.16236 20.15 5.28458 20.05 5.37347 19.9167L5.97347 18.7167C6.41791 18.8056 6.88458 18.85 7.37347 18.85H13.9068C14.3957 18.85 14.8624 18.8056 15.3068 18.7167L15.9068 19.9167C15.9957 20.05 16.1179 20.15 16.2735 20.2167C16.429 20.2833 16.5735 20.2722 16.7068 20.1833C16.8401 20.0944 16.9401 19.9833 17.0068 19.85C17.0735 19.7167 17.0624 19.5611 16.9735 19.3833L16.4401 18.3167C17.329 17.8278 18.0624 17.1389 18.6401 16.25C19.2179 15.3611 19.5068 14.3833 19.5068 13.3167V12.05C19.8179 11.9167 20.0846 11.7056 20.3068 11.4167C20.529 11.1278 20.6401 10.7833 20.6401 10.3833ZM9.84014 1.78333L6.97347 4.71666C6.66236 4.27222 6.52903 3.80555 6.57347 3.31666C6.61791 2.82777 6.81791 2.40555 7.17347 2.05C7.52903 1.69444 7.96236 1.49444 8.47347 1.45C8.98458 1.40555 9.44014 1.51666 9.84014 1.78333ZM2.37347 9.85H18.9068C19.0401 9.85 19.1624 9.90555 19.2735 10.0167C19.3846 10.1278 19.4401 10.2611 19.4401 10.4167C19.4401 10.5722 19.3846 10.7056 19.2735 10.8167C19.1624 10.9278 19.0401 10.9833 18.9068 10.9833H2.37347C2.24014 10.9833 2.11791 10.9278 2.0068 10.8167C1.89569 10.7056 1.84014 10.5722 1.84014 10.4167C1.84014 10.2611 1.89569 10.1278 2.0068 10.0167C2.11791 9.90555 2.24014 9.85 2.37347 9.85ZM18.3068 13.3167C18.3068 14.1167 18.1068 14.85 17.7068 15.5167C17.3068 16.1833 16.7735 16.7167 16.1068 17.1167C15.4401 17.5167 14.7068 17.7167 13.9068 17.7167H7.37347C6.57347 17.7167 5.84014 17.5167 5.17347 17.1167C4.5068 16.7167 3.97347 16.1833 3.57347 15.5167C3.17347 14.85 2.97347 14.1167 2.97347 13.3167V12.1833H18.3068V13.3167ZM9.1068 6.18333C9.1068 6.36111 9.16236 6.50555 9.27347 6.61666C9.38458 6.72777 9.51791 6.78333 9.67347 6.78333C9.82903 6.78333 9.96236 6.72777 10.0735 6.61666C10.1846 6.50555 10.2401 6.36111 10.2401 6.18333C10.2401 6.00555 10.1846 5.86111 10.0735 5.75C9.96236 5.63889 9.82903 5.58333 9.67347 5.58333C9.51791 5.58333 9.38458 5.63889 9.27347 5.75C9.16236 5.86111 9.1068 6.00555 9.1068 6.18333ZM10.7735 4.51666C10.7735 4.69444 10.829 4.83889 10.9401 4.95C11.0512 5.06111 11.1846 5.11666 11.3401 5.11666C11.4957 5.11666 11.629 5.06111 11.7401 4.95C11.8512 4.83889 11.9068 4.69444 11.9068 4.51666C11.9068 4.33889 11.8512 4.19444 11.7401 4.08333C11.629 3.97222 11.4957 3.91666 11.3401 3.91666C11.1846 3.91666 11.0512 3.97222 10.9401 4.08333C10.829 4.19444 10.7735 4.33889 10.7735 4.51666ZM11.1735 6.58333C11.1735 6.71666 11.229 6.85 11.3401 6.98333C11.4512 7.11666 11.5846 7.18333 11.7401 7.18333C11.8957 7.18333 12.029 7.11666 12.1401 6.98333C12.2512 6.85 12.3068 6.70555 12.3068 6.55C12.3068 6.39444 12.2512 6.26111 12.1401 6.15C12.029 6.03889 11.8957 5.98333 11.7401 5.98333C11.5846 5.98333 11.4512 6.03889 11.3401 6.15C11.229 6.26111 11.1735 6.40555 11.1735 6.58333Z" fill="#1A1A1A"/>
</g>
<defs>
<clipPath id="clip0_2_2091">
<rect width="20" height="20" fill="white" transform="matrix(1 0 0 -1 0.640137 20.25)"/>
</clipPath>
</defs>
</svg>
