<svg width="20" height="21" viewBox="0 0 20 21" fill="none" xmlns="http://www.w3.org/2000/svg">
<g clip-path="url(#clip0_2_2083)">
<path d="M16.1335 2.66334C15.2891 1.86334 14.3446 1.24112 13.3002 0.796671C12.2557 0.352226 11.1557 0.130003 10.0002 0.130003C8.84461 0.130003 7.7335 0.352226 6.66683 0.796671C5.60016 1.24112 4.66683 1.86334 3.86683 2.66334C3.06683 3.46334 2.44461 4.39667 2.00016 5.46334C1.55572 6.53 1.3335 7.64112 1.3335 8.79667C1.3335 9.95223 1.55572 11.0522 2.00016 12.0967C2.44461 13.1411 3.06683 14.0856 3.86683 14.93L8.46683 19.53C8.86683 19.93 9.36683 20.13 9.96683 20.13C10.5668 20.13 11.0891 19.93 11.5335 19.53L16.1335 14.93C16.9335 14.0856 17.5557 13.1411 18.0002 12.0967C18.4446 11.0522 18.6668 9.95223 18.6668 8.79667C18.6668 7.64112 18.4446 6.53 18.0002 5.46334C17.5557 4.39667 16.9335 3.46334 16.1335 2.66334ZM15.2668 14.0633L10.6668 18.6633C10.4891 18.8411 10.2668 18.93 10.0002 18.93C9.7335 18.93 9.48905 18.8411 9.26683 18.6633L4.66683 14.0633C3.95572 13.3522 3.42239 12.5411 3.06683 11.63C2.71127 10.7189 2.5335 9.76334 2.5335 8.76334C2.5335 7.76334 2.71127 6.80778 3.06683 5.89667C3.42239 4.98556 3.95572 4.18556 4.66683 3.49667C5.37794 2.80778 6.18905 2.27445 7.10016 1.89667C8.01127 1.51889 8.96683 1.33 9.96683 1.33C10.9668 1.33 11.9224 1.51889 12.8335 1.89667C13.7446 2.27445 14.5557 2.79667 15.2668 3.46334C16.2446 4.44112 16.9002 5.57445 17.2335 6.86334C17.5668 8.15223 17.5668 9.44112 17.2335 10.73C16.9002 12.0189 16.2446 13.13 15.2668 14.0633ZM10.0002 5.66334C9.15572 5.66334 8.42239 5.97445 7.80016 6.59667C7.17794 7.21889 6.86683 7.95223 6.86683 8.79667C6.86683 9.64112 7.17794 10.3633 7.80016 10.9633C8.42239 11.5633 9.15572 11.8633 10.0002 11.8633C10.8446 11.8633 11.5668 11.5633 12.1668 10.9633C12.7668 10.3633 13.0668 9.64112 13.0668 8.79667C13.0668 7.95223 12.7668 7.21889 12.1668 6.59667C11.5668 5.97445 10.8446 5.66334 10.0002 5.66334ZM10.0002 10.73C9.46683 10.73 9.01127 10.5411 8.6335 10.1633C8.25572 9.78556 8.06683 9.33 8.06683 8.79667C8.06683 8.26334 8.25572 7.80778 8.6335 7.43C9.01127 7.05223 9.46683 6.86334 10.0002 6.86334C10.5335 6.86334 10.9891 7.05223 11.3668 7.43C11.7446 7.80778 11.9335 8.26334 11.9335 8.79667C11.9335 9.33 11.7446 9.78556 11.3668 10.1633C10.9891 10.5411 10.5335 10.73 10.0002 10.73Z" fill="#1A1A1A"/>
</g>
<defs>
<clipPath id="clip0_2_2083">
<rect width="20" height="20" fill="white" transform="matrix(1 0 0 -1 0 20.13)"/>
</clipPath>
</defs>
</svg>
