<svg width="21" height="21" viewBox="0 0 21 21" fill="none" xmlns="http://www.w3.org/2000/svg">
<path d="M16.3867 19.05H13.9867C13.8534 19.05 13.72 19.1167 13.5867 19.25C13.4534 19.3833 13.3867 19.5278 13.3867 19.6833C13.3867 19.8389 13.4534 19.9722 13.5867 20.0833C13.72 20.1944 13.8534 20.25 13.9867 20.25H16.3867C16.5645 20.25 16.7089 20.1944 16.82 20.0833C16.9311 19.9722 16.9867 19.8389 16.9867 19.6833C16.9867 19.5278 16.9311 19.3833 16.82 19.25C16.7089 19.1167 16.5645 19.05 16.3867 19.05ZM11.6534 19.05H9.32002C9.14224 19.05 8.9978 19.1167 8.88669 19.25C8.77558 19.3833 8.72002 19.5278 8.72002 19.6833C8.72002 19.8389 8.77558 19.9722 8.88669 20.0833C8.9978 20.1944 9.14224 20.25 9.32002 20.25H11.6534C11.8311 20.25 11.9756 20.1944 12.0867 20.0833C12.1978 19.9722 12.2534 19.8389 12.2534 19.6833C12.2534 19.5278 12.1978 19.3833 12.0867 19.25C11.9756 19.1167 11.8311 19.05 11.6534 19.05ZM19.92 8.45C19.7867 8.45 19.6534 8.50556 19.52 8.61667C19.3867 8.72778 19.32 8.87222 19.32 9.05V11.3833C19.32 11.5611 19.3867 11.7056 19.52 11.8167C19.6534 11.9278 19.7978 11.9833 19.9534 11.9833C20.1089 11.9833 20.2422 11.9278 20.3534 11.8167C20.4645 11.7056 20.52 11.5611 20.52 11.3833V9.05C20.52 8.87222 20.4645 8.72778 20.3534 8.61667C20.2422 8.50556 20.0978 8.45 19.92 8.45ZM19.92 13.1167C19.7867 13.1167 19.6534 13.1833 19.52 13.3167C19.3867 13.45 19.32 13.5833 19.32 13.7167V16.05C19.32 16.2278 19.3867 16.3722 19.52 16.4833C19.6534 16.5944 19.7978 16.65 19.9534 16.65C20.1089 16.65 20.2422 16.5944 20.3534 16.4833C20.4645 16.3722 20.52 16.2278 20.52 16.05V13.7167C20.52 13.5833 20.4645 13.45 20.3534 13.3167C20.2422 13.1833 20.0978 13.1167 19.92 13.1167ZM6.98669 19.05H6.38669V18.5167C6.38669 18.3389 6.33113 18.1944 6.22002 18.0833C6.10891 17.9722 5.96446 17.9167 5.78669 17.9167C5.60891 17.9167 5.46446 17.9722 5.35335 18.0833C5.24224 18.1944 5.18669 18.3389 5.18669 18.5167V19.65C5.18669 19.8278 5.24224 19.9722 5.35335 20.0833C5.46446 20.1944 5.60891 20.25 5.78669 20.25H6.98669C7.12002 20.25 7.24224 20.1944 7.35335 20.0833C7.46446 19.9722 7.52002 19.8389 7.52002 19.6833C7.52002 19.5278 7.46446 19.3833 7.35335 19.25C7.24224 19.1167 7.12002 19.05 6.98669 19.05ZM19.92 4.91667H18.7867C18.6089 4.91667 18.4645 4.97222 18.3534 5.08333C18.2422 5.19444 18.1867 5.33889 18.1867 5.51667C18.1867 5.69444 18.2422 5.83889 18.3534 5.95C18.4645 6.06111 18.6089 6.11667 18.7867 6.11667H19.32V6.71667C19.32 6.85 19.3867 6.97222 19.52 7.08333C19.6534 7.19444 19.7978 7.25 19.9534 7.25C20.1089 7.25 20.2422 7.19444 20.3534 7.08333C20.4645 6.97222 20.52 6.85 20.52 6.71667V5.51667C20.52 5.33889 20.4645 5.19444 20.3534 5.08333C20.2422 4.97222 20.0978 4.91667 19.92 4.91667ZM19.92 17.9167C19.7867 17.9167 19.6534 17.9722 19.52 18.0833C19.3867 18.1944 19.32 18.3389 19.32 18.5167V19.05H18.7867C18.6089 19.05 18.4645 19.1167 18.3534 19.25C18.2422 19.3833 18.1867 19.5278 18.1867 19.6833C18.1867 19.8389 18.2422 19.9722 18.3534 20.0833C18.4645 20.1944 18.6089 20.25 18.7867 20.25H19.92C20.0978 20.25 20.2422 20.1944 20.3534 20.0833C20.4645 19.9722 20.52 19.8278 20.52 19.65V18.5167C20.52 18.3389 20.4645 18.1944 20.3534 18.0833C20.2422 17.9722 20.0978 17.9167 19.92 17.9167ZM16.3867 4.91667H15.7867V0.849998C15.7867 0.672222 15.72 0.527777 15.5867 0.416666C15.4534 0.305555 15.32 0.249998 15.1867 0.249998H1.12002C0.942242 0.249998 0.797797 0.305555 0.686686 0.416666C0.575575 0.527777 0.52002 0.672222 0.52002 0.849998V14.9167C0.52002 15.05 0.575575 15.1833 0.686686 15.3167C0.797797 15.45 0.942242 15.5167 1.12002 15.5167H5.18669V16.05C5.18669 16.2278 5.24224 16.3722 5.35335 16.4833C5.46446 16.5944 5.60891 16.65 5.78669 16.65C5.96446 16.65 6.10891 16.5944 6.22002 16.4833C6.33113 16.3722 6.38669 16.2278 6.38669 16.05V6.11667H16.3867C16.5645 6.11667 16.7089 6.06111 16.82 5.95C16.9311 5.83889 16.9867 5.69444 16.9867 5.51667C16.9867 5.33889 16.9311 5.19444 16.82 5.08333C16.7089 4.97222 16.5645 4.91667 16.3867 4.91667ZM14.5867 4.91667H5.78669C5.60891 4.91667 5.46446 4.97222 5.35335 5.08333C5.24224 5.19444 5.18669 5.33889 5.18669 5.51667V14.3167H1.72002V1.45H14.5867V4.91667Z" fill="#1A1A1A"/>
</svg>
